<svg width="1425" height="358" viewBox="0 0 1425 358" fill="none" xmlns="http://www.w3.org/2000/svg">
<path d="M186.387 40.0693H232.194V261.851H189.23V114.842L123.205 222.248H108.989L42.6478 114.842V261.851H0V40.0693H45.491L115.939 154.129L186.387 40.0693Z" fill="#0339A6"/>
<path d="M346.627 97.4158C394.962 97.4158 431.291 134.485 431.291 181.693C431.291 228.584 394.962 265.97 346.627 265.97C298.609 265.97 262.279 228.584 262.279 181.693C262.279 134.485 298.609 97.4158 346.627 97.4158ZM346.627 227.317C373.48 227.317 390.223 206.723 390.223 181.693C390.223 156.663 373.48 136.069 346.627 136.069C320.091 136.069 303.348 156.663 303.348 181.693C303.348 206.723 320.091 227.317 346.627 227.317Z" fill="#0339A6"/>
<path d="M526.294 97.4158C577.155 97.4158 593.898 126.564 593.898 164.901V261.851H553.778V244.743C546.196 257.099 528.505 265.97 507.023 265.97C483.014 265.97 450.159 252.98 450.159 218.762C450.159 165.852 515.237 165.851 536.403 165.851C542.721 165.851 549.987 165.851 553.778 165.851C553.462 142.723 545.248 132.584 520.607 132.584C506.076 132.584 493.123 140.188 487.121 144.307L459.637 123.396C477.328 107.238 499.441 97.4158 526.294 97.4158ZM553.778 218.446V191.198C552.83 191.198 551.882 191.198 551.251 191.198C522.503 191.198 491.228 190.881 491.228 214.96C491.228 227 499.125 236.822 519.028 236.822C539.562 236.822 550.303 225.099 553.778 218.446Z" fill="#0339A6"/>
<path d="M709.726 137.97H675.608V196.584C675.608 214.96 678.135 225.733 700.249 225.733C703.092 225.733 706.883 225.416 709.726 225.099V261.851C705.62 263.119 701.197 264.069 692.983 264.069C651.915 264.069 635.487 236.505 635.487 203.238V137.97H612.742V101.218H635.487V67.6337H675.608V101.218H709.726V137.97Z" fill="#0339A6"/>
<path d="M829.404 97.4158C869.841 97.4158 888.164 130.366 888.164 164.267V261.851H848.043V172.505C848.043 151.911 839.513 136.386 816.768 136.386C793.075 136.386 782.65 154.129 782.65 172.505V261.851H742.845V40.0693H782.65V120.861C791.495 107.871 806.027 97.4158 829.404 97.4158Z" fill="#0339A6"/>
<path d="M926.098 261.851V101.218H966.218V261.851H926.098ZM946 77.7723C934.311 77.7723 924.834 68.2673 924.834 56.2277C924.834 44.5049 934.311 35 946 35C958.004 35 967.482 44.5049 967.482 56.2277C967.482 68.2673 958.004 77.7723 946 77.7723Z" fill="#0339A6"/>
<path d="M1123.88 101.218H1164V323H1123.88V243.158C1113.77 256.149 1097.66 265.97 1073.02 265.97C1023.1 265.97 994.672 223.832 994.672 181.693C994.672 139.554 1023.1 97.4158 1073.02 97.4158C1097.66 97.4158 1113.77 106.921 1123.88 120.228V101.218ZM1079.02 227.317C1106.5 227.317 1122.3 206.406 1122.3 181.693C1122.3 156.98 1106.5 136.069 1079.02 136.069C1051.54 136.069 1035.74 156.98 1035.74 181.693C1035.74 206.406 1051.54 227.317 1079.02 227.317Z" fill="#0339A6"/>
<path d="M1425 183.373L1293.41 358L1243.43 308.236C1231.85 296.714 1230.55 278.473 1240.37 265.436L1287.39 203.024C1296.16 191.38 1296.16 175.37 1287.39 163.725L1164 0H1286.8L1425 183.373Z" fill="#0339A6"/>
</svg>
